<?xml version="1.0" encoding="UTF-8"?>
<svg version="1.1" xmlns="http://www.w3.org/2000/svg" width="512" height="512">
<path d="M0 0 C9.60643032 0.59767036 19.21954742 0.90826016 28.83984375 1.16796875 C29.65832605 1.19020571 30.47680836 1.21244267 31.32009315 1.23535347 C44.12533398 1.57346345 56.92110601 1.69592032 69.73046875 1.65234375 C70.5574099 1.64971779 71.38435104 1.64709183 72.23635101 1.64438629 C79.80892644 1.61847309 87.38140251 1.57874523 94.95385742 1.52905273 C127.97800953 1.32082681 127.97800953 1.32082681 138.98828125 2.44140625 C139.68293991 2.51125229 140.37759857 2.58109833 141.0933075 2.65306091 C147.35364287 3.44609996 152.86983388 4.98430124 157.5 9.3125 C161.33125437 15.28474946 161.87040456 21.43505509 162.0390625 28.40625 C162.06811172 29.45468079 162.06811172 29.45468079 162.0977478 30.52429199 C162.1568215 32.72440964 162.20363473 34.92458172 162.25 37.125 C162.28824657 38.63022929 162.32730201 40.13543825 162.3671875 41.640625 C162.46246125 45.3018957 162.54675356 48.96332122 162.625 52.625 C183.15404787 39.09059448 203.09926454 24.8907598 222.40234375 9.6484375 C222.94826172 9.22344971 223.49417969 8.79846191 224.05664062 8.3605957 C225.42853546 7.29186115 226.7909763 6.21101884 228.15234375 5.12890625 C231.0526187 3.36491596 233.25031034 2.85789469 236.625 2.625 C239.875 3.875 239.875 3.875 242.625 6.625 C243.89612253 10.22967584 244.26711954 13.83239671 244.625 17.625 C244.73457031 18.73875 244.84414063 19.8525 244.95703125 21 C246.10653283 34.7327122 245.49761446 48.35744678 244.82736206 62.09292603 C243.70134132 85.49759748 243.24722559 108.89316884 242.96704102 132.31982422 C242.87656862 139.75536417 242.7642049 147.19020997 242.625 154.625 C242.59131317 156.46865143 242.59131317 156.46865143 242.5569458 158.34954834 C242.48341096 161.92511357 242.38814103 165.49939305 242.28515625 169.07421875 C242.25390907 170.67206963 242.25390907 170.67206963 242.22203064 172.30220032 C241.98691534 179.33745304 241.31971406 184.70572643 236.375 190.0625 C232.6358513 192.18701631 230.88402879 192.40582194 226.625 191.625 C224.58666992 190.25732422 224.58666992 190.25732422 222.41796875 188.4921875 C221.62664551 187.85659912 220.83532227 187.22101074 220.02001953 186.56616211 C219.22966309 185.92557861 218.43930664 185.28499512 217.625 184.625 C216.23323644 183.53681546 214.8387978 182.45204159 213.44140625 181.37109375 C211.24701708 179.66437506 209.05266236 177.95761215 206.85839844 176.25073242 C202.88949319 173.16349228 198.92002917 170.07697692 194.94921875 166.9921875 C185.81897357 159.89777295 176.70770702 152.7801872 167.625 145.625 C165.80389225 150.28906686 165.33168167 154.48438311 165.31640625 159.4375 C165.29125596 160.94010821 165.2658578 162.44271229 165.24023438 163.9453125 C165.21149439 166.28872691 165.18744346 168.63206998 165.16870117 170.97558594 C165.14695913 173.25491613 165.1075314 175.53344887 165.06640625 177.8125 C165.06629044 178.50641846 165.06617462 179.20033691 165.0660553 179.9152832 C164.97288385 184.53157828 164.0162118 187.68593009 161.625 191.625 C157.20248394 195.76219245 152.90519079 195.75406395 147.0390625 195.71875 C146.38579987 195.71516479 145.73253723 195.71157959 145.05947876 195.70788574 C137.53284087 195.64819702 130.00993653 195.41974622 122.48672485 195.19720459 C89.70592712 194.24538073 56.87445734 194.24705467 24.125 196.1875 C17.73128239 196.54969672 11.34074214 196.81972441 4.9375 196.9375 C4.1228125 196.967229 3.308125 196.99695801 2.46875 197.02758789 C-3.17526657 197.08316227 -7.76386642 196.02403319 -12.375 192.625 C-19.41990089 183.14047832 -17.64292312 169.27749804 -17.875 158 C-17.89456757 157.10251038 -17.91413513 156.20502075 -17.93429565 155.28033447 C-18.59797685 124.76021263 -19.01439688 94.23445599 -19.3516922 63.70917511 C-19.37438914 61.67962309 -19.3979652 59.65008321 -19.42181396 57.62054443 C-19.50380643 50.52679029 -19.57003377 43.43331585 -19.60617065 36.33917236 C-19.61857791 34.2624347 -19.63597376 32.18571996 -19.65872192 30.10906982 C-19.68823455 27.28219628 -19.69843066 24.45591488 -19.703125 21.62890625 C-19.71542648 20.82394211 -19.72772797 20.01897797 -19.74040222 19.18962097 C-19.71508538 12.7308078 -18.67361945 6.92361945 -13.9375 2.1875 C-9.26124597 -0.66387441 -5.33440173 -0.38348561 0 0 Z " fill="#FDFDFD" transform="translate(146.375,159.375)"/>
<path d="M0 0 C9.60643032 0.59767036 19.21954742 0.90826016 28.83984375 1.16796875 C29.65832605 1.19020571 30.47680836 1.21244267 31.32009315 1.23535347 C44.12533398 1.57346345 56.92110601 1.69592032 69.73046875 1.65234375 C70.5574099 1.64971779 71.38435104 1.64709183 72.23635101 1.64438629 C79.80892644 1.61847309 87.38140251 1.57874523 94.95385742 1.52905273 C127.97800953 1.32082681 127.97800953 1.32082681 138.98828125 2.44140625 C139.68293991 2.51125229 140.37759857 2.58109833 141.0933075 2.65306091 C147.35364287 3.44609996 152.86983388 4.98430124 157.5 9.3125 C161.33125437 15.28474946 161.87040456 21.43505509 162.0390625 28.40625 C162.06811172 29.45468079 162.06811172 29.45468079 162.0977478 30.52429199 C162.1568215 32.72440964 162.20363473 34.92458172 162.25 37.125 C162.28824657 38.63022929 162.32730201 40.13543825 162.3671875 41.640625 C162.46246125 45.3018957 162.54675356 48.96332122 162.625 52.625 C183.15404787 39.09059448 203.09926454 24.8907598 222.40234375 9.6484375 C222.94826172 9.22344971 223.49417969 8.79846191 224.05664062 8.3605957 C225.42853546 7.29186115 226.7909763 6.21101884 228.15234375 5.12890625 C231.0526187 3.36491596 233.25031034 2.85789469 236.625 2.625 C239.875 3.875 239.875 3.875 242.625 6.625 C243.89612253 10.22967584 244.26711954 13.83239671 244.625 17.625 C244.73457031 18.73875 244.84414063 19.8525 244.95703125 21 C246.10653283 34.7327122 245.49761446 48.35744678 244.82736206 62.09292603 C243.70134132 85.49759748 243.24722559 108.89316884 242.96704102 132.31982422 C242.87656862 139.75536417 242.7642049 147.19020997 242.625 154.625 C242.59131317 156.46865143 242.59131317 156.46865143 242.5569458 158.34954834 C242.48341096 161.92511357 242.38814103 165.49939305 242.28515625 169.07421875 C242.25390907 170.67206963 242.25390907 170.67206963 242.22203064 172.30220032 C241.98691534 179.33745304 241.31971406 184.70572643 236.375 190.0625 C232.6358513 192.18701631 230.88402879 192.40582194 226.625 191.625 C224.58666992 190.25732422 224.58666992 190.25732422 222.41796875 188.4921875 C221.62664551 187.85659912 220.83532227 187.22101074 220.02001953 186.56616211 C219.22966309 185.92557861 218.43930664 185.28499512 217.625 184.625 C216.23323644 183.53681546 214.8387978 182.45204159 213.44140625 181.37109375 C211.24701708 179.66437506 209.05266236 177.95761215 206.85839844 176.25073242 C202.88949319 173.16349228 198.92002917 170.07697692 194.94921875 166.9921875 C185.81897357 159.89777295 176.70770702 152.7801872 167.625 145.625 C165.80389225 150.28906686 165.33168167 154.48438311 165.31640625 159.4375 C165.29125596 160.94010821 165.2658578 162.44271229 165.24023438 163.9453125 C165.21149439 166.28872691 165.18744346 168.63206998 165.16870117 170.97558594 C165.14695913 173.25491613 165.1075314 175.53344887 165.06640625 177.8125 C165.06629044 178.50641846 165.06617462 179.20033691 165.0660553 179.9152832 C164.97288385 184.53157828 164.0162118 187.68593009 161.625 191.625 C157.20248394 195.76219245 152.90519079 195.75406395 147.0390625 195.71875 C146.38579987 195.71516479 145.73253723 195.71157959 145.05947876 195.70788574 C137.53284087 195.64819702 130.00993653 195.41974622 122.48672485 195.19720459 C89.70592712 194.24538073 56.87445734 194.24705467 24.125 196.1875 C17.73128239 196.54969672 11.34074214 196.81972441 4.9375 196.9375 C4.1228125 196.967229 3.308125 196.99695801 2.46875 197.02758789 C-3.17526657 197.08316227 -7.76386642 196.02403319 -12.375 192.625 C-19.41990089 183.14047832 -17.64292312 169.27749804 -17.875 158 C-17.89456757 157.10251038 -17.91413513 156.20502075 -17.93429565 155.28033447 C-18.59797685 124.76021263 -19.01439688 94.23445599 -19.3516922 63.70917511 C-19.37438914 61.67962309 -19.3979652 59.65008321 -19.42181396 57.62054443 C-19.50380643 50.52679029 -19.57003377 43.43331585 -19.60617065 36.33917236 C-19.61857791 34.2624347 -19.63597376 32.18571996 -19.65872192 30.10906982 C-19.68823455 27.28219628 -19.69843066 24.45591488 -19.703125 21.62890625 C-19.71542648 20.82394211 -19.72772797 20.01897797 -19.74040222 19.18962097 C-19.71508538 12.7308078 -18.67361945 6.92361945 -13.9375 2.1875 C-9.26124597 -0.66387441 -5.33440173 -0.38348561 0 0 Z M-2.16969872 19.72387028 C-4.00241533 22.61462637 -3.67065521 25.02053051 -3.58247375 28.41056824 C-3.56943626 29.07697647 -3.55639876 29.74338471 -3.54296619 30.42998713 C-3.5141105 31.81814822 -3.47854408 33.20618494 -3.43649888 34.59400916 C-3.34468245 37.62623221 -3.29963741 40.65927122 -3.24333191 43.69233704 C-3.18271447 46.14691147 -3.11998699 48.60143449 -3.05541992 51.0559082 C-3.02075396 52.42431324 -2.98621719 53.79272156 -2.95179749 55.16113281 C-2.83967489 59.58277136 -2.72313028 64.004287 -2.60546875 68.42578125 C-2.58537192 69.18155071 -2.56527508 69.93732017 -2.54456925 70.71599174 C-2.35444615 77.85186888 -2.16227221 84.98768882 -1.9658308 92.12339497 C-1.71575835 101.21348329 -1.4755655 110.30371977 -1.24818343 119.39440471 C-1.08680173 125.81366156 -0.91426795 132.23256029 -0.73339731 138.65129727 C-0.62589653 142.47731726 -0.52340449 146.30332082 -0.43297386 150.12978554 C-0.34803134 153.71475589 -0.24936419 157.29908094 -0.13992882 160.8833847 C-0.08411191 162.82921973 -0.0429273 164.77545707 -0.00210571 166.72166443 C0.0356749 167.87230377 0.07345551 169.02294312 0.11238098 170.20845032 C0.13911298 171.21215825 0.16584497 172.21586618 0.19338703 173.24998951 C0.40703545 174.4256197 0.40703545 174.4256197 0.625 175.625 C4.20334442 178.01056295 5.77743926 177.87052967 10.0234375 177.85546875 C11.95123047 177.85256836 11.95123047 177.85256836 13.91796875 177.84960938 C14.59005371 177.84340576 15.26213867 177.83720215 15.95458984 177.83081055 C17.95793893 177.81287653 19.96141464 177.81153379 21.96484375 177.81054688 C27.97181945 177.78370339 33.91769429 177.65120477 39.90234375 177.12109375 C48.5313086 176.38613669 57.15907673 176.47481429 65.8125 176.5 C66.69616241 176.50088623 67.57982483 176.50177246 68.49026489 176.50268555 C79.02531513 176.51503627 89.53687254 176.64069199 100.0625 177.125 C109.47629957 177.5526193 118.88137774 177.79368092 128.30422974 177.85717773 C129.79848259 177.86897038 131.29270424 177.88598006 132.78683472 177.90844727 C134.86721106 177.9382268 136.94677906 177.94833989 139.02734375 177.953125 C140.82933228 177.96714355 140.82933228 177.96714355 142.66772461 177.98144531 C145.5656697 177.8770412 145.5656697 177.8770412 147.28953552 176.40690613 C149.0475692 174.06116722 148.98214921 172.67280575 148.94970703 169.75805664 C148.94625275 168.7701564 148.94279846 167.78225616 148.9392395 166.76441956 C148.92061859 165.69876266 148.90199768 164.63310577 148.8828125 163.53515625 C148.87619598 162.43908554 148.86957947 161.34301483 148.86276245 160.21372986 C148.83931931 156.70470368 148.79560939 153.19630228 148.75 149.6875 C148.71493642 146.1823429 148.68412928 142.67722173 148.65866089 139.17198181 C148.64169046 136.98943809 148.61855391 134.80693186 148.58865356 132.62452698 C148.57889496 131.63347458 148.56913635 130.64242218 148.55908203 129.62133789 C148.54781281 128.75102432 148.53654358 127.88071075 148.52493286 126.98402405 C148.62332745 124.66442949 148.77938917 122.79072364 149.625 120.625 C154.51400484 118.99533172 158.54006398 118.49776692 163.625 119.625 C168.04114739 122.29919299 171.81733055 125.52530522 175.68457031 128.93066406 C179.09690353 131.91023031 182.62073005 134.75478722 186.125 137.625 C187.56910973 138.81889029 189.01312102 140.01289968 190.45703125 141.20703125 C195.85283645 145.64997869 201.3505337 149.95754475 206.86621094 154.25 C208.7742585 155.74168849 210.67296525 157.24472793 212.5703125 158.75 C213.21718018 159.26216064 213.86404785 159.77432129 214.53051758 160.30200195 C215.7791167 161.29100244 217.02640292 162.28166324 218.2722168 163.27416992 C220.6843523 165.59087628 220.6843523 165.59087628 223.625 166.625 C224.32520014 160.25051483 224.81262207 153.91701212 225.01391602 147.50805664 C225.04332275 146.65573456 225.07272949 145.80341248 225.10302734 144.92526245 C225.19848609 142.12866531 225.28896535 139.33193592 225.37890625 136.53515625 C225.44461013 134.54820846 225.5104443 132.56126498 225.57640076 130.57432556 C225.71399968 126.40273164 225.84893198 122.23106131 225.98217773 118.05932617 C226.11671463 113.85605274 226.25534094 109.65295015 226.39819336 105.44995117 C227.26847077 79.83285223 227.86364789 54.25769881 227.625 28.625 C223.42380838 31.07740002 219.73864997 33.90404033 216 37 C209.42683272 42.35976093 202.5761748 47.1728621 195.54125977 51.90332031 C190.88387906 55.04626278 186.35219016 58.27499124 181.9375 61.75 C177.12987038 65.49404916 172.27514779 69.15071546 167.3125 72.6875 C166.34340698 73.40413818 166.34340698 73.40413818 165.35473633 74.13525391 C160.75333764 77.36478139 157.28404623 78.54142759 151.625 78.625 C148.05425402 75.96593384 146.40643007 73.94183215 145.625 69.625 C145.41464095 67.50387958 145.25649899 65.37746581 145.125 63.25 C145.08149414 62.5909668 145.03798828 61.93193359 144.99316406 61.25292969 C144.68880509 56.18102061 144.57817807 51.11962306 144.515625 46.0390625 C144.48046157 44.00035183 144.44312711 41.9616925 144.4050293 39.92303467 C144.38506139 38.56119892 144.37410938 37.19920019 144.37231445 35.83721924 C144.36923897 33.89652734 144.33359298 31.95597195 144.296875 30.015625 C144.2875293 28.88157227 144.27818359 27.74751953 144.26855469 26.57910156 C143.40659555 22.62246059 141.98265962 21.8038682 138.625 19.625 C135.56179597 18.92528502 135.56179597 18.92528502 132.08520508 18.88769531 C131.06451919 18.84504484 131.06451919 18.84504484 130.02321339 18.80153275 C127.55703398 18.71295333 125.09245392 18.66462925 122.625 18.625 C121.64407253 18.6088414 120.66314507 18.5926828 119.65249252 18.57603455 C111.18904152 18.45567931 102.7259069 18.43398252 94.26171875 18.421875 C92.90960988 18.41913228 91.55750123 18.41627535 90.20539284 18.41330719 C83.86922353 18.39971908 77.5330667 18.39000128 71.19688386 18.3861053 C63.90935839 18.38159668 56.62201786 18.36388428 49.33454865 18.3351047 C43.67222643 18.31352285 38.00995654 18.30340348 32.34759361 18.30206418 C28.97573736 18.30101688 25.60405711 18.29512073 22.23224449 18.27724457 C18.48891167 18.26028124 14.74604067 18.26203848 11.00268555 18.26855469 C9.33135811 18.25473251 9.33135811 18.25473251 7.62626648 18.2406311 C6.6103241 18.24620026 5.59438171 18.25176941 4.5476532 18.25750732 C3.66415538 18.25604076 2.78065756 18.2545742 1.87038708 18.2530632 C-0.3975103 18.48423714 -0.3975103 18.48423714 -2.16969872 19.72387028 Z " fill="#090909" transform="translate(146.375,159.375)"/>
<path d="M0 0 C0.21878619 6.92290946 0.41375744 13.84619349 0.59204102 20.77026367 C0.65553977 23.12653845 0.72452614 25.4826719 0.79907227 27.83862305 C0.90516928 31.2216225 0.99163636 34.60463639 1.07421875 37.98828125 C1.1302552 39.57277824 1.1302552 39.57277824 1.18742371 41.18928528 C1.21779472 42.66047066 1.21779472 42.66047066 1.2487793 44.16137695 C1.27320602 45.02519485 1.29763275 45.88901276 1.32279968 46.77900696 C1 49 1 49 -0.33071899 50.78013611 C-2.9783398 52.71494337 -5.36620839 52.35326402 -8.59765625 52.328125 C-9.25447388 52.32661438 -9.9112915 52.32510376 -10.5880127 52.32354736 C-12.74657431 52.31412823 -14.90417138 52.28245473 -17.0625 52.25 C-18.57608382 52.2380548 -20.08967489 52.22699639 -21.60327148 52.21679688 C-31.27456972 52.13329865 -40.92563323 51.80537731 -50.58691406 51.36083984 C-60.99459003 50.92119147 -71.39730842 50.88544546 -81.8125 50.875 C-82.67062286 50.87250244 -83.52874573 50.87000488 -84.41287231 50.86743164 C-93.25604068 50.84621864 -101.98366067 50.98774237 -110.79858398 51.76855469 C-117.0668058 52.22171371 -123.34328097 52.18440556 -129.625 52.1875 C-130.98567879 52.19968082 -132.34635591 52.2120498 -133.70703125 52.22460938 C-135.63482422 52.22750977 -135.63482422 52.22750977 -137.6015625 52.23046875 C-138.75994629 52.23457764 -139.91833008 52.23868652 -141.11181641 52.24291992 C-144 52 -144 52 -147 50 C-147.34057617 48.12060547 -147.34057617 48.12060547 -147.29296875 45.8671875 C-147.28330078 45.06152344 -147.27363281 44.25585938 -147.26367188 43.42578125 C-147.23853516 42.58402344 -147.21339844 41.74226563 -147.1875 40.875 C-147.17396484 40.02550781 -147.16042969 39.17601562 -147.14648438 38.30078125 C-147.11108219 36.20025163 -147.05727401 34.10004707 -147 32 C-146.67 32 -146.34 32 -146 32 C-146 34.97 -146 37.94 -146 41 C-113.58813465 40.54224816 -81.3468485 39.08154178 -49.13626099 35.30557251 C-47.13578889 35.07109044 -45.13419116 34.84627353 -43.13256836 34.62182617 C-32.40907071 33.26913896 -23.17834548 30.49867541 -16 22 C-13.71757643 18.12040704 -11.85196657 14.09879689 -10 10 C-5.13181019 0 -5.13181019 0 0 0 Z " fill="#C9C9C9" transform="translate(294,285)"/>
<path d="M0 0 C0.24830464 26.6699116 -0.42650584 53.27852879 -1.33239746 79.93164062 C-1.47431918 84.15929243 -1.60937542 88.38715294 -1.74441433 92.61502934 C-1.87647711 96.7304917 -2.01196889 100.84583543 -2.14857674 104.96114922 C-2.21281665 106.90382511 -2.27620632 108.84652934 -2.33868217 110.78926277 C-2.42612518 113.48731913 -2.51800243 116.18518965 -2.61108398 118.88305664 C-2.64776939 120.05107567 -2.64776939 120.05107567 -2.68519592 121.24269104 C-2.88560921 126.8572962 -3.38663874 132.41607907 -4 138 C-7.55148397 135.96877826 -10.67328852 133.74512927 -13.8125 131.125 C-14.7715625 130.3309375 -15.730625 129.536875 -16.71875 128.71875 C-17.24210937 128.28433594 -17.76546875 127.84992188 -18.3046875 127.40234375 C-28.15913654 119.25085249 -38.14149291 111.26224909 -48.22070312 103.39111328 C-51.44375766 100.8712224 -54.65878237 98.34110683 -57.875 95.8125 C-59.05986345 94.8814692 -60.24475613 93.9504756 -61.4296875 93.01953125 C-62.70199219 92.01986328 -62.70199219 92.01986328 -64 91 C-63.67 90.01 -63.34 89.02 -63 88 C-57.65718903 87.51210858 -55.11708884 88.80089646 -50.75 91.8125 C-49.53132665 92.63226172 -48.31119597 93.44985987 -47.08984375 94.265625 C-46.43870605 94.70455078 -45.78756836 95.14347656 -45.11669922 95.59570312 C-41.23550777 98.17062968 -37.27657547 100.61788036 -33.3125 103.0625 C-32.53422852 103.55145752 -31.75595703 104.04041504 -30.95410156 104.54418945 C-30.22288086 104.9949585 -29.49166016 105.44572754 -28.73828125 105.91015625 C-28.08899658 106.31371338 -27.43971191 106.71727051 -26.77075195 107.13305664 C-24.87952996 108.21985933 -24.87952996 108.21985933 -22 108 C-19.77909373 100.80212305 -19.67919829 93.93341986 -19.5625 86.4375 C-19.29543378 75.23741034 -18.61897937 64.14760899 -17.5 53 C-17.36924072 51.6895874 -17.23848145 50.3791748 -17.10375977 49.02905273 C-16.1541757 39.86258585 -16.1541757 39.86258585 -15.45288086 35.93896484 C-15.01485514 33.09640223 -14.94727815 30.53334803 -15.03515625 27.6640625 C-15.19487277 11.75917761 -15.19487277 11.75917761 -11.81640625 6.78515625 C-9.28008949 4.80837527 -6.90901086 3.35227182 -4 2 C-1 0 -1 0 0 0 Z " fill="#C9C9C9" transform="translate(374,188)"/>
<path d="M0 0 C1.39403756 -0.10933628 2.79063776 -0.18619553 4.1875 -0.25 C5.35345703 -0.31960937 5.35345703 -0.31960937 6.54296875 -0.390625 C10.01225838 0.16093138 11.52065609 1.54143767 14 4 C14.64355469 6.90649414 14.64355469 6.90649414 14.671875 10.28515625 C14.69580322 11.53022949 14.71973145 12.77530273 14.74438477 14.05810547 C14.74654078 15.39290322 14.74840735 16.72770146 14.75 18.0625 C14.76938772 19.41817226 14.79145271 20.77380882 14.81616211 22.12939453 C14.8643255 24.82630188 14.90281403 27.52307393 14.93505859 30.22021484 C15.02199643 35.28025846 15.26596889 40.32352292 15.5625 45.375 C15.60665039 46.16398682 15.65080078 46.95297363 15.69628906 47.76586914 C15.79456961 49.51074846 15.89673075 51.25540882 16 53 C11.13075335 51.2776549 9.48088249 49.6195743 7 45 C5.18393572 38.82402109 4.41737225 32.77766544 3.875 26.375 C3.79008301 25.41384277 3.70516602 24.45268555 3.61767578 23.46240234 C2.99277541 15.95479646 2.76856818 8.53439138 3 1 C2.01 0.67 1.02 0.34 0 0 Z " fill="#C8C8C8" transform="translate(276,179)"/>
</svg>
